# xmcd
# 
# Track frame offsets:
#     150
#     18482
#     31175
#     47460
#     65827
#     74857
#     95127
#     104910
#     127935
#     144407
#     160440
#     179047
# 
# Disc length: 2640
# 
# Revision: 2
# Processed by: cddbd v1.5.2PL0 Copyright (c) Steve Scherf et al.
# Submitted via: fre:ac v1.0.31
# 
DISCID=ba0a4e0c
DTITLE=Jazziz - Jazziz December 2002 Twelve Sounds Of The Season
DYEAR=2002
DGENRE=Christmas
TTITLE0=Chris Botti-Let It Snow!
TTITLE1=Ray Brown-We Wish You a Merry Christmas
TTITLE2=Ella Fitzgerald-We Three Kings of Orient Are
TTITLE3=Warren Hill-O Holy Night
TTITLE4=Johnny Mathis-Holly Jolly Christmas
TTITLE5=Thy Gypsy Hombres-Dance of the Sugar Plum Fairy
TTITLE6=Steve Tyrell-Santa Claus is Coming to Town
TTITLE7=Philip Aaberg-Montana Sleighride
TTITLE8=Dave Koz-December Makes Me Feel This Way
TTITLE9=Paul Motian and the EBBB-Arabesque
TTITLE10=Nancy Wilson-Sweet Little Jesus Boy
TTITLE11=Roberto Perera-Silent Night
EXTD=YEAR: 2002
EXTT0=
EXTT1=
EXTT2=
EXTT3=
EXTT4=
EXTT5=
EXTT6=
EXTT7=
EXTT8=
EXTT9=
EXTT10=
EXTT11=
PLAYORDER=
